<svg width="136" height="24" viewBox="0 0 136 24" fill="none" xmlns="http://www.w3.org/2000/svg">
    <g clip-path="url(#clip0_99_3849)">
    <path d="M124 2C129.53 2 134 6.47 134 12C134 17.53 129.53 22 124 22C118.47 22 114 17.53 114 12C114 6.47 118.47 2 124 2ZM124 20C128.41 20 132 16.41 132 12C132 7.59 128.41 4 124 4C119.59 4 116 7.59 116 12C116 16.41 119.59 20 124 20Z" fill="#EAB53D"/>
    </g>
    <g clip-path="url(#clip1_99_3849)">
    <path d="M96 2C101.53 2 106 6.47 106 12C106 17.53 101.53 22 96 22C90.47 22 86 17.53 86 12C86 6.47 90.47 2 96 2ZM96 20C100.41 20 104 16.41 104 12C104 7.59 100.41 4 96 4C91.59 4 88 7.59 88 12C88 16.41 91.59 20 96 20Z" fill="#EAB53D"/>
    </g>
    <g clip-path="url(#clip2_99_3849)">
    <path d="M68 2C73.53 2 78 6.47 78 12C78 17.53 73.53 22 68 22C62.47 22 58 17.53 58 12C58 6.47 62.47 2 68 2ZM68 20C72.41 20 76 16.41 76 12C76 7.59 72.41 4 68 4C63.59 4 60 7.59 60 12C60 16.41 63.59 20 68 20Z" fill="#EAB53D"/>
    </g>
    <g clip-path="url(#clip3_99_3849)">
    <path d="M40 2C45.53 2 50 6.47 50 12C50 17.53 45.53 22 40 22C34.47 22 30 17.53 30 12C30 6.47 34.47 2 40 2ZM40 20C44.41 20 48 16.41 48 12C48 7.59 44.41 4 40 4C35.59 4 32 7.59 32 12C32 16.41 35.59 20 40 20Z" fill="#EAB53D"/>
    </g>
    <g clip-path="url(#clip4_99_3849)">
    <path d="M12 2C17.52 2 22 6.48 22 12C22 17.52 17.52 22 12 22C6.48 22 2 17.52 2 12C2 6.48 6.48 2 12 2Z" fill="#EAB53D"/>
    </g>
    <defs>
    <clipPath id="clip0_99_3849">
    <rect width="24" height="24" fill="white" transform="matrix(-1 0 0 1 136 0)"/>
    </clipPath>
    <clipPath id="clip1_99_3849">
    <rect width="24" height="24" fill="white" transform="matrix(-1 0 0 1 108 0)"/>
    </clipPath>
    <clipPath id="clip2_99_3849">
    <rect width="24" height="24" fill="white" transform="matrix(-1 0 0 1 80 0)"/>
    </clipPath>
    <clipPath id="clip3_99_3849">
    <rect width="24" height="24" fill="white" transform="matrix(-1 0 0 1 52 0)"/>
    </clipPath>
    <clipPath id="clip4_99_3849">
    <rect width="24" height="24" fill="white" transform="matrix(-1 0 0 1 24 0)"/>
    </clipPath>
    </defs>
    </svg>
    