<?xml version="1.0" standalone="no"?>
<!DOCTYPE svg PUBLIC "-//W3C//DTD SVG 20010904//EN"
 "http://www.w3.org/TR/2001/REC-SVG-20010904/DTD/svg10.dtd">
<svg version="1.0" xmlns="http://www.w3.org/2000/svg"
 width="512.000000pt" height="512.000000pt" viewBox="0 0 512.000000 512.000000"
 preserveAspectRatio="xMidYMid meet" style="background-color: black;">

<g transform="translate(0.000000,512.000000) scale(0.100000,-0.100000)"
fill="white" stroke="none">
<path d="M2539 5027 c-31 -13 -69 -33 -85 -45 -16 -11 -309 -301 -650 -644
-596 -597 -623 -626 -644 -683 -30 -82 -30 -189 1 -270 19 -50 41 -79 136
-176 l114 -117 -198 -4 c-173 -3 -204 -6 -243 -24 -65 -30 -105 -67 -134 -126
-26 -52 -26 -54 -26 -292 0 -232 1 -243 24 -292 27 -59 92 -118 150 -137 l41
-14 5 -949 5 -949 23 -43 c36 -67 98 -129 161 -159 l56 -28 1285 0 1285 0 56
28 c63 30 125 92 161 159 l23 43 5 949 5 949 41 14 c58 19 123 78 150 137 23
49 24 60 24 291 0 212 -3 245 -19 281 -28 61 -75 109 -133 135 -51 23 -62 24
-357 27 l-304 3 210 212 c226 227 252 264 272 373 14 73 1 155 -36 229 -19 38
-144 169 -541 566 -588 587 -567 570 -721 576 -73 3 -95 0 -142 -20z m159
-722 c238 -48 440 -230 519 -470 23 -69 26 -97 26 -205 0 -108 -3 -136 -26
-205 -36 -108 -89 -195 -167 -275 -272 -276 -709 -276 -980 0 -78 80 -131 167
-167 275 -23 69 -26 97 -26 205 0 108 3 136 26 205 112 341 447 539 795 470z
m-1033 -1465 l140 -140 -155 0 c-167 0 -203 -8 -208 -49 -2 -12 4 -31 14 -42
17 -19 45 -19 1104 -19 1059 0 1087 0 1104 19 10 11 16 30 14 42 -6 44 -35 49
-313 49 l-260 0 140 140 140 140 356 0 c353 0 356 0 389 -22 73 -50 75 -55 78
-299 3 -208 2 -223 -18 -264 -13 -27 -36 -53 -58 -67 l-37 -23 -1536 0 -1535
0 -37 25 c-21 14 -46 44 -58 67 -19 39 -20 57 -17 262 3 244 5 249 78 299 32
21 40 22 284 22 l251 0 140 -140z m-117 -1292 c5 -7 40 -120 78 -251 37 -131
71 -232 75 -225 4 7 35 110 69 228 34 118 68 225 76 238 19 29 59 29 79 -1 14
-22 9 -45 -81 -358 -53 -184 -104 -342 -112 -351 -18 -21 -42 -23 -65 -5 -16
12 -207 649 -207 692 0 12 5 26 12 33 16 16 63 15 76 0z m848 -24 c30 -18 60
-48 79 -78 l30 -49 3 -196 c4 -224 -3 -253 -69 -320 -44 -44 -111 -71 -173
-71 -55 0 -134 38 -173 83 -54 61 -66 123 -61 320 4 197 13 226 90 291 52 45
86 56 164 53 48 -2 72 -9 110 -33z m680 11 c15 -23 15 -27 0 -50 -15 -23 -22
-25 -96 -25 l-80 0 0 -308 c0 -298 -1 -310 -20 -327 -16 -15 -26 -17 -48 -9
l-27 9 -5 315 -5 315 -80 3 c-88 3 -105 12 -105 51 0 49 9 51 237 51 l213 0
16 -25z m572 13 c7 -7 12 -24 12 -38 0 -47 -12 -50 -197 -50 l-173 0 0 -110 0
-110 167 0 c180 0 203 -6 203 -56 0 -46 -30 -54 -207 -54 l-163 0 0 -110 0
-110 173 0 c183 0 197 -3 197 -46 0 -51 -15 -54 -240 -54 -204 0 -209 0 -224
22 -24 34 -24 672 0 706 15 22 19 22 228 22 151 0 215 -3 224 -12z"/>
<path d="M2472 4209 c-134 -23 -244 -82 -338 -183 -109 -117 -154 -234 -154
-401 0 -84 5 -113 28 -181 67 -190 216 -329 409 -379 74 -19 213 -19 288 0
105 28 184 74 265 155 119 119 170 244 170 417 0 278 -201 519 -475 568 -89
16 -117 17 -193 4z m431 -340 c5 -9 7 -27 4 -40 -3 -13 -105 -122 -225 -241
-166 -166 -224 -218 -243 -218 -18 0 -52 28 -127 103 -103 104 -120 135 -90
165 28 28 60 13 140 -65 l79 -77 197 197 c175 175 200 197 226 195 16 -2 33
-10 39 -19z"/>
<path d="M2209 1441 c-64 -35 -71 -62 -67 -268 l3 -182 29 -30 c51 -53 120
-60 180 -18 48 34 56 70 56 244 0 131 -3 164 -18 192 -36 71 -116 98 -183 62z"/>
</g>
</svg>
