<?xml version="1.0" standalone="no"?>
<!DOCTYPE svg PUBLIC "-//W3C//DTD SVG 20010904//EN"
 "http://www.w3.org/TR/2001/REC-SVG-20010904/DTD/svg10.dtd">
<svg version="1.0" xmlns="http://www.w3.org/2000/svg"
 width="1913.000000pt" height="952.000000pt" viewBox="0 0 1913.000000 952.000000"
 preserveAspectRatio="xMidYMid meet">

<g transform="translate(0.000000,952.000000) scale(0.100000,-0.100000)"
fill="#000000" stroke="none">
<path d="M0 9135 l0 -385 9565 0 9565 0 0 385 0 385 -9565 0 -9565 0 0 -385z
m396 180 c64 -55 72 -75 44 -114 l-20 -30 32 -3 c30 -3 33 -6 36 -40 2 -21 -1
-38 -7 -38 -6 0 -11 -41 -13 -102 l-3 -103 -145 0 -145 0 -3 103 c-2 61 -7
102 -13 102 -6 0 -9 16 -7 37 2 30 8 38 28 43 17 4 21 8 12 14 -6 4 -12 15
-12 24 0 23 124 152 146 152 9 0 41 -20 70 -45z m14935 -177 c1 -24 3 -35 6
-26 10 38 84 33 91 -6 8 -41 -66 -65 -87 -28 -10 16 -10 16 -11 0 0 -11 -8
-18 -20 -18 -12 0 -20 7 -20 18 -1 16 -1 16 -11 0 -5 -10 -19 -18 -29 -18 -13
0 -20 -7 -20 -20 0 -13 -7 -20 -20 -20 -13 0 -20 7 -20 20 0 13 -7 20 -20 20
-11 0 -20 6 -21 13 0 10 -2 10 -6 0 -3 -9 -26 -13 -64 -13 l-59 0 0 55 0 55
40 0 c22 0 40 -4 40 -10 0 -5 -9 -10 -20 -10 -11 0 -20 -4 -20 -10 0 -5 7 -10
15 -10 8 0 15 -4 15 -10 0 -5 -7 -10 -15 -10 -25 0 -17 -27 9 -32 29 -6 41 14
26 43 -9 16 -7 19 10 19 11 0 20 -6 21 -12 0 -10 2 -10 6 0 3 8 26 12 63 12
46 0 61 -4 69 -17 8 -15 10 -11 11 20 0 30 4 37 20 37 17 0 20 -7 21 -42z
m1412 23 c-22 -18 -22 -19 -3 -24 15 -4 20 -14 20 -42 0 -36 0 -36 -37 -33
-30 2 -38 7 -38 23 0 12 9 22 25 26 24 7 24 7 3 8 -22 1 -34 21 -14 21 5 0 13
9 16 20 4 12 15 20 28 20 l22 -1 -22 -18z m127 4 c0 -8 -6 -15 -14 -15 -17 0
-28 14 -19 24 12 12 33 6 33 -9z m620 0 c0 -8 -6 -15 -14 -15 -17 0 -28 14
-19 24 12 12 33 6 33 -9z m140 -4 c0 -13 8 -21 23 -23 18 -2 23 -10 25 -40 2
-29 0 -38 -12 -38 -10 0 -16 9 -16 24 0 14 -4 28 -10 31 -6 4 -10 -7 -10 -24
0 -29 -2 -31 -40 -31 -38 0 -40 2 -40 31 0 17 -4 28 -10 24 -5 -3 -10 -17 -10
-31 0 -15 -6 -24 -15 -24 -11 0 -15 11 -15 40 0 40 0 40 39 40 22 0 42 -5 44
-12 3 -7 6 2 6 20 1 25 5 32 21 32 13 0 20 -7 20 -19z m1290 4 c0 -8 -6 -15
-14 -15 -17 0 -28 14 -19 24 12 12 33 6 33 -9z m-2891 -22 l20 -28 1 28 c0 17
5 27 15 27 12 0 15 -13 15 -55 0 -63 -16 -72 -49 -27 l-20 27 -1 -27 c0 -21
-5 -28 -20 -28 -18 0 -20 7 -20 55 0 48 3 55 19 55 11 0 29 -12 40 -27z m1327
2 c3 -14 10 -25 14 -25 4 0 11 11 14 25 5 18 13 25 31 25 24 0 25 -3 25 -55 0
-48 -2 -55 -20 -55 -12 0 -20 7 -21 18 -1 16 -2 16 -6 0 -8 -30 -39 -21 -51
15 l-10 32 -1 -32 c-1 -22 -6 -33 -16 -33 -12 0 -15 13 -15 55 0 52 1 55 25
55 18 0 26 -7 31 -25z m1434 10 c0 -11 -7 -14 -25 -9 -33 8 -32 -9 1 -24 18
-9 24 -19 22 -35 -2 -18 -10 -23 -40 -25 -29 -2 -38 0 -38 13 0 11 6 14 25 9
14 -3 25 -2 25 3 0 6 -11 15 -25 21 -26 12 -34 47 -12 55 28 12 67 7 67 -8z
m-572 -12 c12 -12 13 -18 4 -21 -14 -4 -17 -42 -3 -42 5 0 11 7 15 15 3 8 16
16 28 16 l23 2 -22 4 c-35 7 -27 25 10 21 29 -3 32 -6 35 -41 l3 -37 -63 2
c-61 3 -63 4 -66 31 -4 37 -22 34 -22 -4 0 -29 -2 -30 -37 -27 -36 3 -38 5
-41 41 -2 28 0 37 12 37 11 0 16 -10 16 -31 0 -17 4 -28 10 -24 6 3 10 17 10
31 0 19 5 24 25 24 14 0 25 5 25 10 0 15 20 12 38 -7z m-2650 -15 c7 -7 12
-25 12 -40 0 -26 -3 -28 -40 -28 -34 0 -40 3 -40 20 0 12 10 24 23 30 19 8 17
9 -15 9 -36 1 -38 -1 -38 -29 0 -20 -5 -30 -15 -30 -11 0 -15 11 -15 40 l0 40
58 0 c32 0 63 -5 70 -12z m82 2 c0 -5 -7 -10 -15 -10 -10 0 -15 -10 -15 -30 0
-20 -5 -30 -15 -30 -11 0 -15 11 -15 40 0 38 2 40 30 40 17 0 30 -4 30 -10z
m530 -10 c16 -29 -4 -60 -38 -60 -31 0 -52 16 -52 40 0 41 70 57 90 20z m48
-2 l11 -23 0 23 c1 15 7 22 20 22 19 0 19 -3 7 -37 -17 -51 -49 -57 -65 -12
-14 41 -14 49 2 49 8 0 19 -10 25 -22z m136 0 c15 -25 -4 -52 -40 -56 -45 -6
-67 45 -30 71 18 12 58 3 70 -15z m86 -2 c0 -14 5 -28 10 -31 6 -4 10 7 10 24
0 24 4 31 20 31 11 0 20 -5 20 -12 0 -9 3 -9 12 0 14 14 58 16 58 3 0 -5 -7
-11 -15 -13 -13 -2 -12 -6 5 -16 18 -11 20 -10 20 13 0 16 6 25 15 25 10 0 15
-10 15 -30 0 -16 5 -30 10 -30 6 0 10 14 10 30 0 20 5 30 15 30 11 0 15 -11
15 -40 0 -39 -1 -40 -34 -40 -19 0 -38 5 -41 10 -5 8 -11 8 -20 0 -8 -6 -42
-10 -82 -8 l-68 3 -3 38 c-2 28 0 37 12 37 10 0 16 -9 16 -24z m380 18 c0 -3
-7 -12 -15 -20 -8 -9 -15 -24 -15 -35 0 -10 -7 -19 -15 -19 -11 0 -15 11 -15
40 0 38 2 40 30 40 17 0 30 -3 30 -6z m40 -34 c0 -29 -4 -40 -15 -40 -11 0
-15 11 -15 40 0 29 4 40 15 40 11 0 15 -11 15 -40z m90 25 c27 -33 -8 -73 -53
-61 -22 5 -27 12 -27 35 0 16 6 32 13 34 24 10 55 7 67 -8z m530 -25 c0 -33
-3 -40 -20 -40 -17 0 -20 7 -20 40 0 33 3 40 20 40 17 0 20 -7 20 -40z m266
29 c4 -8 9 -8 17 0 14 14 67 14 67 1 0 -5 -10 -10 -22 -11 l-23 0 23 -10 c15
-5 22 -16 20 -26 -3 -15 -16 -19 -76 -21 -67 -3 -72 -1 -72 18 0 12 9 24 23
30 l22 9 -22 0 c-13 1 -23 6 -23 11 0 14 57 13 66 -1z m225 -19 c4 -14 7 -19
8 -12 1 6 11 13 24 13 l22 2 -22 4 c-32 6 -28 23 5 23 36 0 52 -16 52 -53 0
-28 -1 -29 -47 -27 -89 4 -103 2 -103 -20 0 -11 -7 -20 -15 -20 -12 0 -15 13
-15 59 l0 60 42 -2 c36 -2 43 -6 49 -27z m399 20 c0 -5 -8 -10 -17 -10 -16 -1
-15 -2 2 -12 29 -16 29 -16 15 -33 -14 -17 -60 -21 -60 -5 0 6 8 10 17 10 15
0 15 1 -2 14 -25 18 -13 46 20 46 14 0 25 -4 25 -10z m488 -2 c7 -7 12 -25 12
-40 0 -26 -3 -28 -40 -28 -34 0 -40 3 -40 20 0 12 10 24 23 30 l22 9 -22 0
c-13 1 -23 6 -23 11 0 14 54 12 68 -2z m52 -28 c0 -29 -4 -40 -15 -40 -11 0
-15 11 -15 40 0 29 4 40 15 40 11 0 15 -11 15 -40z m80 30 c0 -5 -7 -10 -15
-10 -10 0 -15 -10 -15 -30 0 -23 -4 -30 -20 -30 -17 0 -20 7 -20 40 0 39 1 40
35 40 19 0 35 -4 35 -10z"/>
<path d="M271 9264 c-12 -15 -21 -34 -21 -43 0 -9 8 0 18 19 22 45 71 54 96
18 9 -12 16 -18 16 -12 0 19 -36 44 -63 44 -16 0 -33 -10 -46 -26z"/>
<path d="M324 9225 c-12 -8 -25 -11 -29 -7 -5 4 -5 1 -1 -5 5 -10 13 -9 32 3
13 9 24 18 24 20 0 7 -5 5 -26 -11z"/>
<path d="M362 9190 c-15 -25 -58 -26 -86 -2 -21 17 -21 17 -2 -5 24 -29 67
-30 91 -3 10 11 16 22 14 25 -3 2 -10 -5 -17 -15z"/>
<path d="M160 9130 l0 -30 160 0 160 0 0 30 c0 28 -2 30 -39 30 -49 0 -77 -26
-34 -33 15 -2 -24 -4 -87 -4 -63 -1 -107 1 -97 4 28 7 1 33 -34 33 -26 0 -29
-4 -29 -30z"/>
<path d="M274 9006 c-9 -24 0 -51 19 -54 9 -2 17 1 17 7 0 6 -7 8 -15 5 -11
-5 -15 1 -15 21 0 20 4 26 15 21 8 -3 15 -1 15 4 0 16 -30 12 -36 -4z"/>
<path d="M339 8988 c5 -30 6 -31 9 -8 2 14 9 28 16 32 7 5 3 8 -10 8 -18 0
-20 -5 -15 -32z"/>
<path d="M380 8985 c0 -30 3 -35 23 -34 16 1 18 2 5 6 -10 2 -18 8 -18 13 0 5
8 11 18 13 16 4 16 5 0 6 -10 0 -18 5 -18 10 0 5 8 12 18 14 13 4 11 5 -5 6
-20 1 -23 -4 -23 -34z"/>
<path d="M227 8982 c1 -8 3 -19 3 -25 0 -7 4 -6 10 3 5 8 10 22 10 30 0 12 -2
13 -9 1 -5 -7 -11 -9 -13 -5 -3 5 -3 3 -1 -4z"/>
<path d="M15176 9114 c-3 -9 -2 -23 4 -32 7 -14 9 -10 10 16 0 35 -5 41 -14
16z"/>
<path d="M15230 9100 c0 -11 5 -20 10 -20 6 0 10 9 10 20 0 11 -4 20 -10 20
-5 0 -10 -9 -10 -20z"/>
<path d="M15370 9100 c0 -13 5 -20 13 -17 6 2 12 10 12 17 0 7 -6 15 -12 18
-8 2 -13 -5 -13 -18z"/>
<path d="M16715 9090 c-3 -5 -1 -10 4 -10 6 0 11 5 11 10 0 6 -2 10 -4 10 -3
0 -8 -4 -11 -10z"/>
<path d="M18265 9090 c-3 -5 -1 -10 4 -10 6 0 11 5 11 10 0 6 -2 10 -4 10 -3
0 -8 -4 -11 -10z"/>
<path d="M16130 9100 c0 -11 5 -20 10 -20 6 0 10 9 10 20 0 11 -4 20 -10 20
-5 0 -10 -9 -10 -20z"/>
<path d="M16310 9100 c0 -13 5 -20 13 -17 6 2 12 10 12 17 0 7 -6 15 -12 18
-8 2 -13 -5 -13 -18z"/>
<path d="M16510 9096 c0 -10 8 -16 22 -16 12 0 19 1 17 3 -2 1 -12 9 -21 16
-15 12 -18 11 -18 -3z"/>
<path d="M16910 9100 c0 -13 5 -20 13 -17 6 2 12 10 12 17 0 7 -6 15 -12 18
-8 2 -13 -5 -13 -18z"/>
<path d="M17770 9090 c0 -5 10 -10 23 -10 18 0 19 2 7 10 -19 13 -30 13 -30 0z"/>
<path d="M17925 9110 c-8 -13 4 -32 16 -25 12 8 12 35 0 35 -6 0 -13 -4 -16
-10z"/>
<path d="M18015 9090 c-3 -5 -1 -10 4 -10 6 0 11 5 11 10 0 6 -2 10 -4 10 -3
0 -8 -4 -11 -10z"/>
<path d="M18300 8650 c-18 -18 -20 -33 -20 -140 0 -175 -38 -160 395 -160 433
0 395 -15 395 160 0 175 38 160 -395 160 -342 0 -356 -1 -375 -20z m590 -80
c0 -5 9 -10 20 -10 13 0 20 -7 20 -19 0 -11 6 -22 13 -25 10 -5 10 -7 0 -12
-7 -3 -13 -14 -13 -25 0 -12 -7 -19 -19 -19 -11 0 -22 -6 -25 -12 -5 -10 -7
-10 -12 0 -3 6 -14 12 -25 12 -12 0 -19 7 -19 19 0 11 -6 22 -12 25 -10 5 -10
7 0 12 6 3 12 14 12 25 0 12 7 19 20 19 11 0 20 5 20 10 0 6 5 10 10 10 6 0
10 -4 10 -10z m-420 -20 c0 -5 -7 -10 -15 -10 -8 0 -15 -4 -15 -10 0 -5 7 -10
15 -10 8 0 15 -4 15 -10 0 -5 -7 -10 -15 -10 -8 0 -15 -9 -15 -20 0 -11 -7
-20 -15 -20 -11 0 -15 12 -15 50 0 49 1 50 30 50 17 0 30 -4 30 -10z m30 0 c0
-5 -4 -10 -10 -10 -5 0 -10 5 -10 10 0 6 5 10 10 10 6 0 10 -4 10 -10z m40 -5
c0 -18 16 -20 24 -2 5 10 7 10 12 0 3 -7 22 -13 42 -14 21 0 31 -3 25 -6 -7
-2 -13 -18 -13 -34 0 -26 -3 -29 -35 -29 -30 0 -35 3 -35 24 0 14 -4 28 -10
31 -6 4 -10 -7 -10 -24 0 -21 -5 -31 -15 -31 -11 0 -15 12 -15 50 0 38 4 50
15 50 8 0 15 -7 15 -15z m-40 -50 c0 -19 -4 -35 -10 -35 -5 0 -10 16 -10 35 0
19 5 35 10 35 6 0 10 -16 10 -35z m225 0 c0 -26 -4 -30 -32 -33 -25 -2 -33 1
-38 18 -9 28 12 52 44 48 22 -2 26 -8 26 -33z"/>
<path d="M18860 8524 c-11 -12 -10 -18 3 -32 16 -15 18 -15 34 0 13 14 14 20
3 32 -7 9 -16 16 -20 16 -4 0 -13 -7 -20 -16z"/>
<path d="M18580 8500 c0 -11 5 -20 10 -20 6 0 10 9 10 20 0 11 -4 20 -10 20
-5 0 -10 -9 -10 -20z"/>
<path d="M18677 8504 c-9 -10 2 -24 19 -24 8 0 14 7 14 15 0 15 -21 21 -33 9z"/>
<path d="M2240 7581 c-112 -36 -174 -119 -174 -231 0 -137 96 -234 234 -234
138 0 234 97 234 234 0 95 -44 169 -128 212 -43 22 -128 32 -166 19z m56 -196
c3 -14 1 -31 -5 -38 -8 -10 -7 -19 4 -33 32 -42 2 -48 -32 -6 l-22 27 -1 -27
c0 -18 -5 -28 -15 -28 -12 0 -15 14 -15 65 l0 65 40 0 c34 0 41 -4 46 -25z
m104 11 c0 -9 -8 -12 -25 -8 -34 6 -31 -6 8 -39 27 -23 30 -31 21 -46 -15 -24
-84 -31 -84 -8 0 11 6 14 24 9 36 -9 40 12 6 32 -31 19 -41 58 -17 67 26 11
67 7 67 -7z"/>
<path d="M2240 7369 c0 -24 23 -21 28 4 2 10 -3 17 -12 17 -10 0 -16 -9 -16
-21z"/>
<path d="M8430 7581 c-112 -36 -174 -119 -174 -231 0 -137 96 -234 234 -234
138 0 234 97 234 234 0 95 -44 169 -128 212 -43 22 -128 32 -166 19z m50 -192
c9 -16 8 -24 -3 -37 -14 -15 -13 -19 3 -40 11 -13 21 -18 25 -12 3 5 17 7 30
4 36 -9 39 13 5 31 -25 13 -31 22 -28 43 3 23 8 27 41 30 27 2 37 -1 37 -11 0
-10 -8 -13 -25 -9 -35 6 -32 -19 5 -40 58 -33 31 -68 -52 -67 -49 1 -57 4 -67
25 -14 31 -31 31 -31 -1 0 -16 -6 -25 -15 -25 -12 0 -15 14 -15 65 l0 65 40 0
c30 0 42 -5 50 -21z"/>
<path d="M8420 7370 c0 -11 7 -20 15 -20 8 0 15 9 15 20 0 11 -7 20 -15 20 -8
0 -15 -9 -15 -20z"/>
<path d="M14620 7581 c-112 -36 -174 -119 -174 -231 0 -137 96 -234 234 -234
138 0 234 97 234 234 0 95 -44 169 -128 212 -43 22 -128 32 -166 19z m48 -199
c2 -13 -1 -29 -7 -36 -9 -10 -6 -19 9 -37 10 -13 19 -18 20 -12 0 8 10 11 30
7 38 -8 42 17 5 34 -53 24 -39 72 21 72 24 0 34 -5 34 -15 0 -11 -7 -14 -24
-9 -36 9 -41 -13 -6 -31 25 -13 31 -22 28 -43 -3 -26 -6 -27 -62 -29 -52 -1
-61 2 -82 25 l-23 27 -1 -27 c0 -18 -5 -28 -15 -28 -12 0 -15 14 -15 66 l0 65
43 -3 c35 -3 43 -7 45 -26z"/>
<path d="M14610 7370 c0 -11 7 -20 15 -20 8 0 15 9 15 20 0 11 -7 20 -15 20
-8 0 -15 -9 -15 -20z"/>
<path d="M3220 7515 c0 -8 5 -15 10 -15 6 0 10 7 10 15 0 8 -4 15 -10 15 -5 0
-10 -7 -10 -15z"/>
<path d="M3547 7524 c-8 -8 1 -24 14 -24 5 0 9 7 9 15 0 15 -12 20 -23 9z"/>
<path d="M9407 7524 c-8 -8 1 -24 14 -24 5 0 9 7 9 15 0 15 -12 20 -23 9z"/>
<path d="M9730 7515 c0 -9 5 -15 11 -13 6 2 11 8 11 13 0 5 -5 11 -11 13 -6 2
-11 -4 -11 -13z"/>
<path d="M15590 7515 c0 -8 5 -15 10 -15 6 0 10 7 10 15 0 8 -4 15 -10 15 -5
0 -10 -7 -10 -15z"/>
<path d="M15920 7515 c0 -8 5 -15 10 -15 6 0 10 7 10 15 0 8 -4 15 -10 15 -5
0 -10 -7 -10 -15z"/>
<path d="M2640 7465 c0 -30 5 -55 10 -55 6 0 10 9 10 20 0 11 4 20 10 20 5 0
14 -9 20 -20 6 -11 18 -20 26 -20 14 0 14 2 0 22 -11 15 -12 26 -5 40 14 26
-5 48 -42 48 -28 0 -29 -1 -29 -55z m50 20 c0 -8 -7 -15 -15 -15 -8 0 -15 7
-15 15 0 8 7 15 15 15 8 0 15 -7 15 -15z"/>
<path d="M3129 7504 c-12 -14 -10 -19 14 -38 34 -27 35 -40 2 -33 -16 3 -24 0
-22 -7 5 -16 46 -20 63 -6 21 18 17 39 -11 52 -30 14 -33 28 -5 28 11 0 20 5
20 10 0 16 -46 11 -61 -6z"/>
<path d="M8830 7465 c0 -30 5 -55 10 -55 6 0 10 9 10 20 0 26 8 25 30 -2 10
-13 22 -20 26 -15 4 4 1 15 -8 24 -13 12 -14 20 -6 33 17 27 3 50 -32 50 -30
0 -30 0 -30 -55z m48 23 c-6 -18 -28 -21 -28 -4 0 9 7 16 16 16 9 0 14 -5 12
-12z"/>
<path d="M9319 7504 c-12 -14 -10 -19 14 -38 34 -27 35 -40 2 -33 -16 3 -24 0
-22 -7 5 -17 52 -19 66 -3 15 18 5 44 -20 52 -25 8 -24 25 1 25 11 0 20 5 20
10 0 16 -46 11 -61 -6z"/>
<path d="M15010 7465 c0 -42 3 -55 15 -55 8 0 15 9 15 20 0 11 3 20 8 20 4 0
13 -9 20 -20 7 -11 17 -20 23 -20 7 0 6 8 -3 23 -11 16 -12 27 -5 38 17 28 1
49 -38 49 l-35 0 0 -55z m52 20 c0 -5 -5 -11 -11 -13 -6 -2 -11 4 -11 13 0 9
5 15 11 13 6 -2 11 -8 11 -13z"/>
<path d="M15513 7513 c-22 -8 -14 -43 12 -55 14 -6 25 -15 25 -20 0 -4 -11 -8
-25 -8 -14 0 -25 -4 -25 -10 0 -11 30 -13 54 -4 25 9 19 43 -9 56 -14 6 -25
16 -25 21 0 5 11 7 25 5 17 -4 25 -1 25 8 0 14 -32 18 -57 7z"/>
<path d="M2740 7470 c-15 -28 4 -60 35 -60 31 0 50 32 35 60 -6 12 -21 20 -35
20 -14 0 -29 -8 -35 -20z m50 -20 c0 -11 -7 -20 -15 -20 -8 0 -15 9 -15 20 0
11 7 20 15 20 8 0 15 -9 15 -20z"/>
<path d="M2841 7477 c-26 -26 1 -76 35 -63 10 4 14 1 12 -6 -3 -7 -14 -14 -26
-16 -29 -4 -28 -22 1 -22 34 0 47 19 47 70 0 45 -1 47 -29 48 -15 0 -33 -4
-40 -11z m49 -27 c0 -11 -6 -20 -14 -20 -18 0 -29 16 -21 30 11 18 35 11 35
-10z"/>
<path d="M2942 7478 c-28 -28 -9 -68 34 -68 23 0 16 18 -8 23 -19 4 -18 4 5 6
23 1 28 5 25 24 -3 25 -36 35 -56 15z m35 -14 c-3 -3 -12 -4 -19 -1 -8 3 -5 6
6 6 11 1 17 -2 13 -5z"/>
<path d="M3020 7449 c0 -22 5 -39 10 -39 6 0 10 11 10 25 0 14 7 28 15 31 23
9 18 22 -10 22 -22 0 -25 -5 -25 -39z"/>
<path d="M3220 7450 c0 -22 5 -40 10 -40 6 0 10 18 10 40 0 22 -4 40 -10 40
-5 0 -10 -18 -10 -40z"/>
<path d="M3270 7475 c-6 -8 -10 -24 -8 -37 2 -18 9 -23 31 -23 22 1 27 -4 27
-22 0 -13 5 -23 10 -23 6 0 10 26 10 58 0 58 0 59 -29 60 -16 0 -35 -6 -41
-13z m45 -26 c0 -7 -8 -15 -17 -17 -18 -3 -25 18 -11 32 10 10 28 1 28 -15z"/>
<path d="M3362 7453 c3 -36 5 -38 41 -40 37 -2 37 -2 37 37 0 29 -4 40 -15 40
-10 0 -15 -10 -15 -31 0 -38 -24 -35 -28 4 -5 42 -24 32 -20 -10z"/>
<path d="M3458 7465 c-14 -30 3 -55 38 -55 30 0 31 17 2 23 -20 4 -19 4 5 6
30 1 32 4 17 32 -15 27 -48 24 -62 -6z m49 -1 c-3 -3 -12 -4 -19 -1 -8 3 -5 6
6 6 11 1 17 -2 13 -5z"/>
<path d="M3550 7450 c0 -22 5 -40 10 -40 6 0 10 18 10 40 0 22 -4 40 -10 40
-5 0 -10 -18 -10 -40z"/>
<path d="M3590 7449 c0 -22 5 -39 10 -39 6 0 10 11 10 25 0 14 7 28 15 31 23
9 18 22 -10 22 -22 0 -25 -5 -25 -39z"/>
<path d="M3660 7481 c0 -6 10 -11 23 -12 21 -1 21 -1 -3 -8 -16 -4 -25 -14
-25 -26 0 -16 7 -20 33 -22 32 -1 33 0 30 35 -3 32 -7 37 -30 40 -16 2 -28 -1
-28 -7z m40 -41 c0 -5 -7 -10 -16 -10 -8 0 -12 5 -9 10 3 6 10 10 16 10 5 0 9
-4 9 -10z"/>
<path d="M8930 7475 c-26 -32 13 -81 48 -59 34 22 22 74 -18 74 -10 0 -23 -7
-30 -15z m50 -25 c0 -13 -7 -20 -20 -20 -13 0 -20 7 -20 20 0 13 7 20 20 20
13 0 20 -7 20 -20z"/>
<path d="M9024 7475 c-3 -7 -4 -24 -2 -37 2 -18 9 -23 30 -21 20 1 25 -2 21
-13 -3 -8 -16 -14 -29 -14 -13 0 -24 -4 -24 -10 0 -16 47 -12 64 6 10 9 16 33
16 58 0 42 -1 43 -35 44 -23 1 -38 -4 -41 -13z m51 -25 c0 -8 -8 -16 -17 -18
-13 -2 -18 3 -18 18 0 15 5 20 18 18 9 -2 17 -10 17 -18z"/>
<path d="M9132 7481 c-8 -5 -12 -21 -10 -37 2 -23 9 -30 31 -32 32 -4 37 15 5
21 -20 4 -19 4 5 6 28 1 35 19 15 39 -14 14 -28 15 -46 3z m35 -17 c-3 -3 -12
-4 -19 -1 -8 3 -5 6 6 6 11 1 17 -2 13 -5z"/>
<path d="M9210 7449 c0 -22 5 -39 10 -39 6 0 10 14 10 30 0 20 5 30 15 30 8 0
15 4 15 9 0 5 -11 9 -25 9 -22 0 -25 -5 -25 -39z"/>
<path d="M9410 7450 c0 -22 5 -40 10 -40 6 0 10 18 10 40 0 22 -4 40 -10 40
-5 0 -10 -18 -10 -40z"/>
<path d="M9454 7475 c-3 -7 -4 -24 -2 -37 2 -18 9 -23 31 -21 22 1 27 -2 27
-23 0 -13 5 -24 10 -24 6 0 10 26 10 58 l0 59 -35 1 c-23 1 -38 -4 -41 -13z
m51 -25 c0 -8 -8 -16 -17 -18 -13 -2 -18 3 -18 18 0 15 5 20 18 18 9 -2 17
-10 17 -18z"/>
<path d="M9552 7453 c3 -35 6 -38 36 -40 31 -1 32 0 32 38 0 21 -4 39 -10 39
-5 0 -10 -13 -10 -30 0 -20 -5 -30 -15 -30 -10 0 -15 10 -15 30 0 17 -5 30
-11 30 -6 0 -9 -16 -7 -37z"/>
<path d="M9652 7478 c-27 -27 -6 -68 35 -68 30 0 30 20 1 21 -21 1 -20 2 3 8
23 5 25 9 18 29 -9 24 -38 29 -57 10z"/>
<path d="M9730 7450 c0 -22 5 -40 10 -40 6 0 10 18 10 40 0 22 -4 40 -10 40
-5 0 -10 -18 -10 -40z"/>
<path d="M9780 7449 c0 -22 5 -39 10 -39 6 0 10 14 10 30 0 20 5 30 15 30 8 0
15 4 15 9 0 5 -11 9 -25 9 -22 0 -25 -5 -25 -39z"/>
<path d="M9840 7480 c0 -5 10 -10 23 -11 l22 0 -22 -9 c-13 -5 -23 -18 -23
-29 0 -15 7 -19 35 -19 31 0 35 3 35 27 0 15 -5 32 -12 39 -15 15 -58 16 -58
2z m40 -40 c0 -5 -7 -10 -16 -10 -8 0 -12 5 -9 10 3 6 10 10 16 10 5 0 9 -4 9
-10z"/>
<path d="M15123 7483 c-7 -2 -13 -18 -13 -34 0 -22 6 -30 25 -35 29 -7 55 10
55 35 0 33 -32 49 -67 34z m42 -33 c0 -8 -8 -16 -17 -18 -13 -2 -18 3 -18 18
0 15 5 20 18 18 9 -2 17 -10 17 -18z"/>
<path d="M15208 7465 c-14 -30 6 -59 34 -51 12 3 18 0 15 -7 -2 -7 -13 -13
-25 -15 -29 -4 -28 -22 1 -22 34 0 47 19 47 70 0 45 -1 47 -31 48 -23 0 -33
-5 -41 -23z m52 -15 c0 -11 -7 -20 -15 -20 -8 0 -15 9 -15 20 0 11 7 20 15 20
8 0 15 -9 15 -20z"/>
<path d="M15308 7465 c-14 -30 3 -55 38 -55 30 0 31 17 2 23 -20 4 -19 4 5 6
30 1 32 4 17 32 -15 27 -48 24 -62 -6z m49 -1 c-3 -3 -12 -4 -19 -1 -8 3 -5 6
6 6 11 1 17 -2 13 -5z"/>
<path d="M15390 7449 c0 -22 5 -39 10 -39 6 0 10 9 10 19 0 11 7 26 15 35 20
20 19 24 -10 24 -22 0 -25 -5 -25 -39z"/>
<path d="M15590 7450 c0 -22 5 -40 10 -40 6 0 10 18 10 40 0 22 -4 40 -10 40
-5 0 -10 -18 -10 -40z"/>
<path d="M15641 7477 c-25 -25 1 -76 34 -63 11 4 15 -1 15 -19 0 -14 5 -25 10
-25 6 0 10 26 10 58 0 58 0 59 -29 60 -15 0 -33 -4 -40 -11z m49 -27 c0 -21
-24 -28 -35 -10 -8 14 3 30 21 30 8 0 14 -9 14 -20z"/>
<path d="M15742 7453 c3 -35 6 -38 36 -40 31 -1 32 0 32 38 0 44 -17 54 -22
12 -4 -39 -28 -42 -28 -4 0 17 -5 31 -11 31 -6 0 -9 -16 -7 -37z"/>
<path d="M15842 7478 c-28 -28 -9 -68 34 -68 23 0 16 18 -8 23 -19 4 -18 4 5
6 23 1 28 5 25 24 -3 25 -36 35 -56 15z m35 -14 c-3 -3 -12 -4 -19 -1 -8 3 -5
6 6 6 11 1 17 -2 13 -5z"/>
<path d="M15920 7450 c0 -22 5 -40 10 -40 6 0 10 18 10 40 0 22 -4 40 -10 40
-5 0 -10 -18 -10 -40z"/>
<path d="M15970 7449 c0 -22 5 -39 10 -39 6 0 10 14 10 30 0 20 5 30 15 30 8
0 15 4 15 9 0 5 -11 9 -25 9 -22 0 -25 -5 -25 -39z"/>
<path d="M16030 7481 c0 -6 10 -11 23 -12 21 -1 21 -1 -3 -8 -16 -4 -25 -14
-25 -26 0 -16 7 -20 33 -22 32 -1 33 0 30 35 -3 32 -7 37 -30 40 -16 2 -28 -1
-28 -7z m40 -41 c0 -5 -7 -10 -16 -10 -8 0 -12 5 -9 10 3 6 10 10 16 10 5 0 9
-4 9 -10z"/>
<path d="M2800 7292 c0 -15 -6 -22 -20 -22 -24 0 -53 -41 -44 -63 3 -10 16
-16 30 -15 20 2 25 10 35 56 6 29 8 56 5 59 -3 4 -6 -3 -6 -15z m-10 -51 c0
-25 -27 -48 -41 -34 -8 8 -7 17 0 32 14 26 41 28 41 2z"/>
<path d="M9640 7292 c0 -15 -6 -22 -20 -22 -24 0 -53 -41 -44 -63 3 -10 16
-16 30 -15 20 2 25 10 35 56 6 29 8 56 5 59 -3 4 -6 -3 -6 -15z m-10 -51 c0
-25 -27 -48 -41 -34 -8 8 -7 17 0 32 14 26 41 28 41 2z"/>
<path d="M15830 7292 c0 -15 -6 -22 -18 -22 -25 0 -55 -34 -50 -57 2 -12 13
-18 30 -19 25 -1 28 3 38 53 7 30 9 57 6 60 -3 4 -6 -3 -6 -15z m-10 -43 c0
-17 -20 -49 -31 -49 -16 0 -22 29 -9 45 14 17 40 20 40 4z"/>
<path d="M2674 7283 c-35 -59 -54 -96 -41 -80 19 22 67 23 67 0 0 -9 2 -14 5
-11 8 7 -6 108 -14 108 -3 0 -11 -8 -17 -17z m8 -51 c-21 -6 -25 4 -11 30 l13
23 6 -25 c4 -17 2 -26 -8 -28z"/>
<path d="M8841 7250 c-18 -29 -30 -55 -27 -58 3 -2 8 3 12 12 9 22 61 22 67
-1 3 -10 3 2 0 27 -9 75 -17 78 -52 20z m39 5 c0 -18 -5 -25 -20 -25 -20 0
-20 1 -4 25 9 14 18 25 20 25 2 0 4 -11 4 -25z"/>
<path d="M15027 7248 c-19 -29 -32 -55 -30 -58 3 -3 9 3 14 13 13 22 55 22 68
0 7 -13 9 -8 4 22 -7 46 -13 59 -13 27 0 -16 -6 -22 -21 -22 -21 0 -19 10 9
43 8 9 13 20 9 23 -3 3 -21 -18 -40 -48z"/>
<path d="M3206 7275 c-6 -17 5 -26 21 -17 8 5 7 11 -2 19 -10 10 -14 9 -19 -2z"/>
<path d="M3450 7280 c0 -5 -8 -10 -19 -10 -10 0 -24 -7 -31 -14 -15 -19 -9
-58 10 -63 12 -4 12 -3 2 5 -8 5 -12 20 -10 33 2 19 9 24 31 24 19 -1 27 4 27
17 0 10 -2 18 -5 18 -3 0 -5 -4 -5 -10z"/>
<path d="M9395 7276 c-15 -16 -12 -79 3 -82 7 -1 8 0 2 3 -11 5 -2 54 11 63 4
3 5 11 1 17 -5 8 -10 8 -17 -1z"/>
<path d="M15170 7280 c0 -5 -8 -10 -19 -10 -10 0 -24 -7 -31 -14 -15 -19 -9
-58 10 -63 12 -4 12 -3 2 5 -8 5 -12 20 -10 33 2 19 9 24 31 24 19 -1 27 4 27
17 0 10 -2 18 -5 18 -3 0 -5 -4 -5 -10z"/>
<path d="M8962 7272 c-39 -6 -57 -82 -20 -82 10 0 10 2 0 9 -18 11 -12 41 10
55 23 14 31 4 19 -27 -6 -15 -6 -29 -2 -31 5 -3 11 13 15 36 8 47 8 45 -22 40z"/>
<path d="M2826 7234 c-4 -20 -5 -38 -3 -40 3 -3 8 11 11 32 4 20 5 38 3 40 -3
3 -8 -11 -11 -32z"/>
<path d="M2868 7263 c8 -3 11 -17 7 -41 l-5 -37 13 35 c12 34 7 51 -18 49 -5
0 -4 -3 3 -6z"/>
<path d="M2918 7263 c8 -3 11 -17 7 -41 -5 -36 -5 -36 5 -7 11 34 7 55 -12 54
-11 0 -11 -2 0 -6z"/>
<path d="M2966 7248 c-8 -32 -7 -58 2 -58 4 0 8 18 9 40 1 45 -2 50 -11 18z"/>
<path d="M3006 7234 c-4 -20 -5 -38 -3 -40 3 -3 8 11 11 32 4 20 5 38 3 40 -3
3 -8 -11 -11 -32z"/>
<path d="M3049 7261 c9 -6 11 -19 7 -42 -4 -25 -4 -29 3 -14 16 34 13 65 -6
65 -14 0 -15 -2 -4 -9z"/>
<path d="M3096 7239 c-8 -41 -8 -49 2 -49 4 0 8 18 9 40 3 48 -2 52 -11 9z"/>
<path d="M3137 7256 c-3 -8 1 -20 9 -26 20 -17 17 -28 -8 -33 l-23 -4 23 -2
c30 -1 40 26 16 44 -18 13 -18 14 6 24 23 9 23 10 4 10 -12 1 -24 -5 -27 -13z"/>
<path d="M3251 7234 c-14 -49 -7 -56 9 -9 7 20 10 39 7 42 -3 3 -10 -12 -16
-33z"/>
<path d="M3316 7251 c-24 -27 -17 -56 14 -56 26 -1 38 15 39 53 1 28 -29 30
-53 3z m44 -2 c0 -17 -20 -49 -31 -49 -16 0 -22 29 -9 45 14 17 40 20 40 4z"/>
<path d="M3484 7245 c-16 -24 -16 -27 0 -43 23 -23 51 -4 51 34 0 38 -28 43
-51 9z m46 -10 c0 -28 -25 -44 -42 -27 -7 7 -6 17 1 31 16 30 41 27 41 -4z"/>
<path d="M3565 7232 c-3 -19 -4 -37 -1 -40 3 -3 6 4 6 16 0 12 9 31 19 41 19
19 19 20 1 18 -13 -1 -21 -12 -25 -35z"/>
<path d="M9014 7233 c-4 -19 -4 -37 0 -40 3 -4 6 5 6 18 0 27 16 49 36 49 8 0
12 -12 10 -32 -2 -18 -1 -24 1 -13 6 26 22 45 39 45 9 0 12 -11 9 -37 l-5 -38
9 35 c5 19 7 37 4 40 -2 3 -27 5 -54 6 -48 1 -49 0 -55 -33z"/>
<path d="M9196 7234 c-4 -20 -5 -38 -3 -40 3 -3 8 11 11 32 4 20 5 38 3 40 -3
3 -8 -11 -11 -32z"/>
<path d="M9236 7263 c6 -4 14 -15 17 -23 5 -11 6 -9 4 4 -1 11 -9 21 -17 23
-10 3 -11 2 -4 -4z"/>
<path d="M9286 7248 c-8 -32 -7 -58 2 -58 4 0 8 18 9 40 1 45 -2 50 -11 18z"/>
<path d="M9325 7259 c-4 -5 0 -18 9 -28 21 -23 20 -29 -6 -34 l-23 -4 23 -2
c28 -1 42 28 19 41 -24 13 -21 26 6 31 22 4 22 4 0 6 -12 0 -25 -4 -28 -10z"/>
<path d="M9500 7256 c-15 -19 -9 -58 10 -63 12 -4 12 -3 2 5 -22 15 -11 56 16
60 20 3 21 1 12 -24 -8 -19 -8 -30 0 -38 7 -7 10 -2 10 16 0 15 3 33 6 42 8
21 -38 22 -56 2z"/>
<path d="M9676 7255 c-18 -18 -19 -25 -10 -49 14 -38 68 -7 62 36 -4 28 -30
35 -52 13z m42 -22 c-3 -31 -34 -44 -44 -19 -7 19 12 46 33 46 10 0 13 -9 11
-27z"/>
<path d="M9754 7232 c-4 -18 -4 -36 0 -39 3 -4 6 5 6 20 0 15 9 32 21 41 l22
15 -21 -2 c-16 -1 -24 -10 -28 -35z"/>
<path d="M15206 7250 c-16 -58 -16 -64 1 -31 27 51 48 54 40 5 l-6 -39 17 34
c22 44 39 50 45 14 4 -27 4 -27 6 5 1 34 -15 42 -37 20 -9 -9 -12 -9 -12 0 0
17 -49 10 -54 -8z"/>
<path d="M15345 7258 c-11 -31 -9 -61 5 -65 11 -3 12 -2 3 4 -9 7 -10 18 -4
41 9 30 5 46 -4 20z"/>
<path d="M15385 7255 c-2 -5 -6 -23 -9 -40 l-6 -30 18 34 c25 49 46 53 40 8
-2 -20 0 -33 4 -31 4 3 8 21 8 39 0 31 -3 35 -26 33 -15 -2 -28 -7 -29 -13z"/>
<path d="M15475 7258 c-11 -31 -9 -61 5 -65 11 -3 12 -2 3 4 -9 7 -10 18 -4
41 9 30 5 46 -4 20z"/>
<path d="M15513 7254 c-4 -10 0 -20 10 -26 24 -13 21 -28 -5 -29 -19 -1 -20
-2 -4 -6 29 -8 43 13 23 35 -21 23 -21 29 1 35 16 4 16 5 -1 6 -10 0 -20 -6
-24 -15z"/>
<path d="M15573 7230 c-2 -32 1 -40 15 -40 13 0 14 2 3 9 -15 9 -6 51 13 63 7
5 3 8 -9 8 -16 0 -20 -7 -22 -40z"/>
<path d="M15625 7232 c-3 -19 -4 -37 -1 -40 3 -3 6 4 6 16 0 12 9 31 19 41 19
19 19 20 1 18 -13 -1 -21 -12 -25 -35z"/>
<path d="M15685 7246 c-20 -30 -10 -56 20 -54 18 2 26 11 33 40 9 36 9 38 -14
38 -14 0 -30 -10 -39 -24z m45 -5 c0 -25 -27 -48 -41 -34 -8 8 -7 17 0 32 14
26 41 28 41 2z"/>
<path d="M15862 7258 c-15 -15 -16 -54 -2 -63 15 -9 47 4 54 22 16 40 -23 70
-52 41z m44 -13 c7 -18 -12 -45 -32 -45 -14 0 -20 41 -7 53 11 12 33 7 39 -8z"/>
<path d="M15941 7234 c-14 -49 -7 -56 9 -9 7 20 10 39 7 42 -3 3 -10 -12 -16
-33z"/>
<path d="M9440 7240 c0 -11 2 -20 4 -20 2 0 6 9 9 20 3 11 1 20 -4 20 -5 0 -9
-9 -9 -20z"/>
<path d="M9150 7220 c0 -16 4 -30 8 -30 5 0 7 14 4 30 -2 17 -6 30 -8 30 -2 0
-4 -13 -4 -30z"/>
<path d="M3200 7215 c0 -14 4 -25 9 -25 4 0 6 11 3 25 -2 14 -6 25 -8 25 -2 0
-4 -11 -4 -25z"/>
<path d="M3436 7223 c-4 -9 -2 -21 4 -27 7 -7 10 -2 10 17 0 31 -5 34 -14 10z"/>
<path d="M15156 7223 c-4 -9 -2 -21 4 -27 7 -7 10 -2 10 17 0 31 -5 34 -14 10z"/>
<path d="M9241 7204 c0 -11 3 -14 6 -6 3 7 2 16 -1 19 -3 4 -6 -2 -5 -13z"/>
<path d="M2160 6850 c0 -47 2 -50 25 -50 14 0 25 5 25 10 0 6 -9 10 -20 10
-11 0 -20 5 -20 10 0 6 7 10 15 10 8 0 15 5 15 10 0 6 -7 10 -15 10 -8 0 -15
5 -15 10 0 6 9 10 20 10 11 0 20 5 20 10 0 6 -11 10 -25 10 -23 0 -25 -3 -25
-50z"/>
<path d="M2230 6850 c0 -46 2 -50 23 -50 30 0 47 18 47 50 0 32 -17 50 -47 50
-21 0 -23 -4 -23 -50z m48 18 c14 -14 -2 -48 -23 -48 -10 0 -15 10 -15 30 0
31 17 39 38 18z"/>
<path d="M2322 6859 c3 -45 24 -67 52 -56 12 5 16 18 15 54 -1 26 -3 39 -6 28
-2 -11 -6 -30 -9 -42 -8 -41 -34 -28 -34 17 0 22 -5 40 -11 40 -6 0 -9 -17 -7
-41z"/>
<path d="M2426 6884 c-30 -30 -11 -84 29 -84 31 0 33 17 3 22 -17 2 -23 10
-23 28 0 18 6 26 23 28 12 2 22 8 22 13 0 15 -37 10 -54 -7z"/>
<path d="M2510 6875 c-19 -49 -22 -75 -11 -75 6 0 11 5 11 10 0 14 38 12 43
-2 2 -7 8 -10 12 -6 10 9 -18 91 -33 96 -7 2 -16 -8 -22 -23z m30 -20 c0 -8
-4 -15 -10 -15 -5 0 -10 7 -10 15 0 8 5 15 10 15 6 0 10 -7 10 -15z"/>
<path d="M2596 6884 c-30 -30 -11 -84 29 -84 31 0 33 17 3 22 -17 2 -23 10
-23 28 0 18 6 26 23 28 12 2 22 8 22 13 0 15 -37 10 -54 -7z"/>
<path d="M2676 6854 c-9 -26 -13 -50 -10 -53 4 -3 9 0 11 7 3 6 13 12 23 12
10 0 20 -6 23 -12 2 -7 8 -10 12 -6 9 9 -18 91 -32 95 -6 2 -18 -17 -27 -43z
m30 -11 c-10 -10 -19 5 -10 18 6 11 8 11 12 0 2 -7 1 -15 -2 -18z"/>
<path d="M2758 6875 c-24 -53 27 -98 66 -59 31 30 9 84 -35 84 -11 0 -24 -11
-31 -25z m57 -25 c0 -29 -32 -41 -41 -16 -9 24 4 48 23 44 12 -2 18 -12 18
-28z"/>
<path d="M8347 6893 c-14 -13 -6 -42 13 -48 11 -3 20 -11 20 -16 0 -5 -9 -9
-20 -9 -11 0 -20 -4 -20 -10 0 -16 36 -12 51 6 11 14 10 19 -9 34 -26 21 -28
30 -7 30 8 0 15 5 15 10 0 11 -33 14 -43 3z"/>
<path d="M8430 6875 c-19 -49 -22 -75 -11 -75 6 0 11 5 11 10 0 14 38 12 43
-2 2 -7 8 -10 12 -6 10 9 -18 91 -33 96 -7 2 -16 -8 -22 -23z m30 -20 c0 -8
-4 -15 -10 -15 -5 0 -10 7 -10 15 0 8 5 15 10 15 6 0 10 -7 10 -15z"/>
<path d="M8514 6855 c1 -41 5 -50 20 -53 11 -3 26 4 33 14 15 21 18 84 3 84
-5 0 -10 -18 -10 -41 0 -33 -3 -40 -17 -37 -12 2 -20 16 -24 43 -7 38 -7 38
-5 -10z"/>
<path d="M8600 6850 c0 -47 2 -50 25 -50 30 0 59 39 48 66 -9 24 -22 34 -50
34 -21 0 -23 -5 -23 -50z m54 15 c8 -23 -4 -45 -25 -45 -14 0 -19 7 -19 30 0
23 5 30 19 30 10 0 21 -7 25 -15z"/>
<path d="M8700 6850 c0 -47 2 -50 25 -50 14 0 25 5 25 10 0 6 -9 10 -20 10
-11 0 -20 5 -20 10 0 6 7 10 15 10 8 0 15 5 15 10 0 6 -7 10 -15 10 -8 0 -15
5 -15 10 0 6 9 10 20 10 11 0 20 5 20 10 0 6 -11 10 -25 10 -23 0 -25 -3 -25
-50z"/>
<path d="M14530 6850 c0 -47 2 -50 25 -50 14 0 25 5 25 10 0 6 -7 10 -15 10
-8 0 -15 5 -15 10 0 6 7 10 15 10 8 0 15 5 15 10 0 6 -7 10 -15 10 -8 0 -15 5
-15 10 0 6 7 10 15 10 8 0 15 5 15 10 0 6 -11 10 -25 10 -23 0 -25 -3 -25 -50z"/>
<path d="M14601 6848 c2 -49 2 -50 9 -18 l7 35 12 -32 c7 -18 16 -33 21 -33 4
0 12 15 18 33 l10 32 1 -32 c2 -54 21 -37 21 17 0 38 -4 50 -15 50 -9 0 -18
-12 -22 -30 -8 -43 -20 -45 -27 -5 -4 21 -13 35 -21 35 -12 0 -15 -13 -14 -52z"/>
<path d="M14720 6850 c0 -27 5 -50 10 -50 6 0 10 6 10 14 0 7 9 16 20 19 45
12 31 67 -16 67 -22 0 -24 -4 -24 -50z m50 15 c0 -8 -7 -15 -15 -15 -8 0 -15
7 -15 15 0 8 7 15 15 15 8 0 15 -7 15 -15z"/>
<path d="M14800 6850 c0 -27 5 -50 10 -50 6 0 10 9 10 20 0 11 4 20 9 20 5 0
13 -9 16 -20 3 -11 11 -20 16 -20 11 0 11 7 0 29 -5 9 -6 23 -1 31 14 22 0 40
-31 40 -28 0 -29 -2 -29 -50z m50 20 c0 -5 -7 -10 -15 -10 -8 0 -15 5 -15 10
0 6 7 10 15 10 8 0 15 -4 15 -10z"/>
<path d="M14890 6850 c0 -47 2 -50 25 -50 14 0 25 5 25 10 0 6 -9 10 -20 10
-11 0 -20 5 -20 10 0 6 7 10 15 10 8 0 15 5 15 10 0 6 -7 10 -15 10 -8 0 -15
5 -15 10 0 6 9 10 20 10 11 0 20 5 20 10 0 6 -11 10 -25 10 -23 0 -25 -3 -25
-50z"/>
<path d="M14965 6880 c-24 -26 -13 -68 20 -76 31 -8 45 2 45 32 0 17 -5 24
-20 24 -22 0 -27 -16 -7 -23 6 -2 9 -8 5 -12 -4 -4 -14 -5 -23 -1 -25 9 -15
50 13 54 12 2 22 8 22 13 0 16 -36 9 -55 -11z"/>
<path d="M15061 6886 c-31 -37 9 -103 47 -80 36 23 23 94 -18 94 -10 0 -23 -6
-29 -14z m44 -36 c0 -28 -29 -40 -38 -15 -9 22 3 46 22 43 10 -2 16 -13 16
-28z"/>
<path d="M2720 6222 l0 -69 32 -1 c39 -1 58 13 58 43 0 29 -24 48 -50 40 -17
-5 -20 -2 -20 24 0 17 -4 31 -10 31 -6 0 -10 -29 -10 -68z m60 -27 c0 -25 -23
-35 -35 -15 -10 16 2 40 20 40 9 0 15 -9 15 -25z"/>
<path d="M4247 6284 c-8 -8 1 -24 14 -24 5 0 9 7 9 15 0 15 -12 20 -23 9z"/>
<path d="M9400 6275 c0 -8 7 -15 15 -15 8 0 15 7 15 15 0 8 -7 15 -15 15 -8 0
-15 -7 -15 -15z"/>
<path d="M9620 6260 c0 -22 -4 -28 -15 -24 -23 9 -45 -15 -45 -47 0 -29 11
-35 63 -38 27 -1 27 -1 27 69 0 56 -3 70 -15 70 -10 0 -15 -10 -15 -30z m0
-65 c0 -25 -23 -35 -35 -15 -10 16 2 40 20 40 9 0 15 -9 15 -25z"/>
<path d="M9830 6221 l0 -69 35 0 c41 0 58 17 53 55 -2 23 -8 28 -30 28 -24 -1
-28 3 -28 27 0 18 -5 28 -15 28 -12 0 -15 -14 -15 -69z m65 -26 c0 -11 -8 -21
-17 -23 -14 -3 -18 3 -18 23 0 20 4 26 18 23 9 -2 17 -12 17 -23z"/>
<path d="M10250 6220 c0 -56 3 -70 15 -70 10 0 15 11 15 35 0 24 5 35 15 35
10 0 15 -11 15 -35 0 -24 5 -35 15 -35 10 0 15 10 15 33 0 43 -13 61 -39 54
-18 -4 -21 -1 -21 24 0 19 -5 29 -15 29 -12 0 -15 -14 -15 -70z"/>
<path d="M10477 6284 c-8 -8 1 -24 14 -24 5 0 9 7 9 15 0 15 -12 20 -23 9z"/>
<path d="M15700 6260 c0 -22 -4 -28 -15 -24 -23 9 -45 -15 -45 -47 0 -29 11
-35 63 -38 27 -1 27 -1 27 69 0 56 -3 70 -15 70 -10 0 -15 -10 -15 -30z m0
-65 c0 -25 -23 -35 -35 -15 -10 16 2 40 20 40 9 0 15 -9 15 -25z"/>
<path d="M15970 6260 c0 -22 -4 -28 -15 -24 -23 9 -45 -15 -45 -47 0 -29 11
-35 63 -38 27 -1 27 -1 27 69 0 56 -3 70 -15 70 -10 0 -15 -10 -15 -30z m0
-65 c0 -25 -23 -35 -35 -15 -10 16 2 40 20 40 9 0 15 -9 15 -25z"/>
<path d="M16490 6275 c0 -9 5 -15 11 -13 6 2 11 8 11 13 0 5 -5 11 -11 13 -6
2 -11 -4 -11 -13z"/>
<path d="M2103 6215 c14 -44 26 -65 37 -65 11 0 23 21 37 65 17 53 19 65 7 65
-8 0 -19 -19 -26 -45 -7 -25 -15 -45 -18 -45 -3 0 -11 20 -18 45 -7 26 -18 45
-26 45 -12 0 -10 -12 7 -65z"/>
<path d="M2420 6265 c-9 -10 -9 -15 -1 -15 6 0 11 5 11 12 0 9 3 9 12 0 17
-17 33 -15 18 3 -7 8 -16 15 -20 15 -4 0 -13 -7 -20 -15z"/>
<path d="M4580 6271 c0 -6 9 -11 20 -11 24 0 26 -17 3 -42 -9 -10 -13 -21 -10
-24 11 -11 47 39 44 61 -1 14 -11 21 -29 23 -16 2 -28 -1 -28 -7z"/>
<path d="M8430 6215 l0 -65 35 0 c19 0 35 5 35 10 0 6 -9 10 -20 10 -13 0 -20
7 -20 20 0 13 7 20 20 20 11 0 20 5 20 10 0 6 -9 10 -20 10 -11 0 -20 7 -20
15 0 8 9 15 20 15 11 0 20 5 20 10 0 6 -16 10 -35 10 l-35 0 0 -65z"/>
<path d="M10620 6271 c0 -6 9 -11 20 -11 24 0 25 -4 4 -36 -22 -33 -10 -43 16
-13 28 33 22 63 -12 67 -16 2 -28 -1 -28 -7z"/>
<path d="M14680 6215 l0 -65 35 0 c19 0 35 5 35 10 0 6 -11 10 -25 10 -18 0
-25 5 -25 20 0 13 7 20 20 20 11 0 20 5 20 10 0 6 -9 10 -20 10 -11 0 -20 7
-20 15 0 9 9 15 25 15 14 0 25 5 25 10 0 6 -16 10 -35 10 l-35 0 0 -65z"/>
<path d="M14950 6265 c-7 -8 -8 -15 -2 -15 5 0 15 7 22 15 7 8 8 15 2 15 -5 0
-15 -7 -22 -15z"/>
<path d="M16747 6273 c-13 -13 -7 -21 13 -16 23 6 26 -8 8 -37 -7 -10 -9 -22
-5 -26 7 -8 46 35 47 52 0 25 -46 45 -63 27z"/>
<path d="M8606 6248 c-13 -14 -15 -23 -8 -26 7 -2 12 -17 12 -33 0 -17 6 -32
15 -36 21 -7 32 4 17 19 -16 16 -15 45 1 51 8 4 9 8 1 14 -6 4 -13 14 -15 21
-3 8 -10 5 -23 -10z"/>
<path d="M9336 6248 c-13 -14 -15 -23 -8 -26 7 -2 12 -17 12 -33 0 -29 23 -50
38 -34 4 4 1 10 -5 12 -7 3 -13 15 -13 28 0 13 6 26 13 28 8 4 9 8 1 14 -6 4
-13 14 -15 21 -3 8 -10 5 -23 -10z"/>
<path d="M14856 6248 c-13 -14 -15 -23 -8 -26 7 -2 12 -17 12 -33 0 -29 23
-50 38 -34 4 4 1 10 -5 12 -7 3 -13 15 -13 28 0 13 6 26 13 28 8 4 9 8 1 14
-6 4 -13 14 -15 21 -3 8 -10 5 -23 -10z"/>
<path d="M15377 6256 c-16 -17 -16 -30 0 -88 5 -19 43 -25 43 -8 0 6 -4 10
-10 10 -15 0 -12 47 3 53 8 4 9 8 1 14 -6 4 -13 14 -15 22 -4 11 -8 10 -22 -3z"/>
<path d="M2206 6224 c-9 -8 -16 -22 -16 -29 0 -20 28 -45 50 -45 22 0 50 25
50 45 0 20 -28 45 -50 45 -10 0 -26 -7 -34 -16z m54 -29 c0 -18 -5 -25 -20
-25 -20 0 -28 28 -13 43 15 16 33 6 33 -18z"/>
<path d="M2317 6222 c-10 -10 -17 -24 -17 -30 0 -17 30 -42 51 -42 25 0 25 16
-1 23 -11 3 -20 13 -20 22 0 9 9 19 20 22 11 3 20 9 20 14 0 16 -36 9 -53 -9z"/>
<path d="M2406 6225 c-19 -19 -20 -29 -6 -56 11 -20 54 -26 65 -9 4 6 -5 10
-19 10 -14 0 -26 5 -26 10 0 6 13 10 30 10 26 0 28 2 21 23 -10 27 -43 34 -65
12z m41 -11 c-3 -3 -12 -4 -19 -1 -8 3 -5 6 6 6 11 1 17 -2 13 -5z"/>
<path d="M2547 6233 c-15 -14 -6 -41 16 -48 l22 -8 -22 -4 c-33 -6 -28 -25 5
-21 36 4 43 40 10 56 l-23 11 23 0 c12 1 22 6 22 11 0 11 -43 14 -53 3z"/>
<path d="M2625 6231 c-4 -7 5 -11 22 -12 l28 -1 -28 -10 c-21 -7 -27 -16 -25
-32 2 -16 11 -21 36 -23 33 -1 33 -1 30 40 -3 37 -6 42 -30 45 -14 2 -29 -2
-33 -7z m45 -51 c0 -5 -7 -10 -15 -10 -8 0 -15 5 -15 10 0 6 7 10 15 10 8 0
15 -4 15 -10z"/>
<path d="M2842 6228 c-29 -29 -7 -78 35 -78 13 0 23 5 23 10 0 6 -9 10 -19 10
-11 0 -23 5 -26 10 -4 6 7 10 24 10 19 0 31 5 31 13 0 18 -21 37 -40 37 -9 0
-21 -5 -28 -12z m41 -15 c-7 -2 -19 -2 -25 0 -7 3 -2 5 12 5 14 0 19 -2 13 -5z"/>
<path d="M2980 6174 c0 -36 4 -64 10 -64 6 0 10 11 10 24 0 19 4 22 25 19 19
-4 27 0 37 22 17 37 1 60 -46 61 l-36 1 0 -63z m60 21 c0 -25 -23 -35 -35 -15
-10 16 2 40 20 40 9 0 15 -9 15 -25z"/>
<path d="M3090 6194 c0 -24 5 -44 10 -44 6 0 10 11 10 24 0 14 7 31 15 40 20
20 19 24 -10 24 -23 0 -25 -4 -25 -44z"/>
<path d="M3166 6224 c-9 -8 -16 -22 -16 -29 0 -20 28 -45 50 -45 22 0 50 25
50 45 0 20 -28 45 -50 45 -10 0 -26 -7 -34 -16z m54 -29 c0 -18 -5 -25 -20
-25 -20 0 -28 28 -13 43 15 16 33 6 33 -18z"/>
<path d="M3269 6218 c-17 -33 4 -72 37 -65 16 3 23 0 21 -7 -2 -6 -16 -11 -30
-11 -16 1 -27 -5 -27 -12 0 -16 52 -17 68 -1 7 7 12 35 12 63 l0 52 -35 1
c-26 1 -37 -4 -46 -20z m56 -24 c0 -10 -8 -20 -17 -22 -18 -3 -26 27 -11 42
12 11 28 0 28 -20z"/>
<path d="M3380 6194 c0 -32 4 -44 15 -44 10 0 15 11 15 35 0 24 5 35 15 35 29
0 15 17 -15 18 -29 1 -30 -1 -30 -44z"/>
<path d="M3460 6230 c0 -5 10 -10 23 -11 20 -1 20 -2 -6 -12 -20 -8 -27 -17
-25 -32 2 -16 11 -20 41 -22 33 -2 37 0 37 23 0 39 -18 64 -45 64 -14 0 -25
-4 -25 -10z m40 -50 c0 -5 -7 -10 -16 -10 -8 0 -12 5 -9 10 3 6 10 10 16 10 5
0 9 -4 9 -10z"/>
<path d="M3550 6193 c0 -50 17 -58 22 -10 2 20 8 32 18 32 10 0 16 -12 18 -32
4 -42 20 -43 24 -1 4 46 28 49 28 4 0 -25 4 -36 15 -36 10 0 15 10 15 33 0 49
-9 54 -77 54 l-63 -1 0 -43z"/>
<path d="M3720 6230 c0 -5 10 -10 23 -11 20 -1 20 -2 -6 -12 -20 -8 -27 -17
-25 -32 2 -16 11 -20 41 -22 33 -2 37 0 37 23 0 39 -18 64 -45 64 -14 0 -25
-4 -25 -10z m40 -50 c0 -5 -7 -10 -16 -10 -8 0 -12 5 -9 10 3 6 10 10 16 10 5
0 9 -4 9 -10z"/>
<path d="M3810 6194 c0 -32 4 -44 15 -44 10 0 15 11 15 35 0 24 5 35 15 35 29
0 15 17 -15 18 -29 1 -30 -1 -30 -44z"/>
<path d="M3942 6228 c-29 -29 -7 -78 35 -78 13 0 23 5 23 10 0 6 -9 10 -19 10
-11 0 -23 5 -26 10 -4 6 7 10 24 10 19 0 31 5 31 13 0 18 -21 37 -40 37 -9 0
-21 -5 -28 -12z m45 -14 c-3 -3 -12 -4 -19 -1 -8 3 -5 6 6 6 11 1 17 -2 13 -5z"/>
<path d="M4030 6194 c0 -32 4 -44 15 -44 10 0 15 11 15 35 0 24 5 35 15 35 10
0 15 -11 15 -35 0 -44 18 -46 22 -2 2 20 8 32 18 32 10 0 16 -12 18 -32 5 -49
24 -40 20 9 l-3 43 -67 1 -68 2 0 -44z"/>
<path d="M4240 6186 c0 -34 -5 -56 -12 -59 -7 -2 -9 -8 -5 -13 4 -4 16 -3 25
2 24 15 30 124 7 124 -12 0 -15 -12 -15 -54z"/>
<path d="M4300 6230 c0 -5 10 -10 23 -10 20 -1 20 -2 -6 -16 -41 -22 -32 -49
16 -50 35 -1 37 0 37 30 0 18 -5 37 -12 44 -15 15 -58 16 -58 2z m45 -50 c-3
-5 -13 -10 -21 -10 -8 0 -12 5 -9 10 3 6 13 10 21 10 8 0 12 -4 9 -10z"/>
<path d="M4399 6195 c9 -26 22 -45 31 -45 9 0 22 19 31 45 14 38 14 45 3 45
-8 0 -17 -13 -20 -30 -4 -16 -10 -30 -14 -30 -4 0 -10 14 -13 30 -4 17 -13 30
-21 30 -11 0 -11 -7 3 -45z"/>
<path d="M4490 6230 c0 -5 10 -10 23 -10 20 -1 20 -2 -6 -16 -41 -22 -32 -49
16 -50 35 -1 37 0 37 30 0 18 -5 37 -12 44 -15 15 -58 16 -58 2z m45 -50 c-3
-5 -13 -10 -21 -10 -8 0 -12 5 -9 10 3 6 13 10 21 10 8 0 12 -4 9 -10z"/>
<path d="M8523 6224 c-4 -11 2 -23 18 -35 l24 -19 -22 0 c-13 0 -23 -4 -23
-10 0 -15 46 -12 58 3 13 15 5 29 -23 45 -19 11 -19 11 3 12 12 0 22 5 22 10
0 17 -50 11 -57 -6z"/>
<path d="M8675 6231 c-4 -7 5 -11 22 -12 l28 -1 -28 -10 c-21 -7 -27 -16 -25
-32 2 -16 11 -21 36 -23 33 -1 33 -1 30 40 -3 37 -6 42 -30 45 -14 2 -29 -2
-33 -7z m45 -51 c0 -5 -7 -10 -15 -10 -8 0 -15 5 -15 10 0 6 7 10 15 10 8 0
15 -4 15 -10z"/>
<path d="M8822 6228 c-18 -18 -15 -26 16 -43 l27 -16 -27 4 c-19 3 -28 0 -28
-9 0 -15 27 -18 54 -8 23 9 20 29 -6 47 -19 13 -20 16 -5 16 9 1 17 6 17 11 0
14 -33 13 -48 -2z"/>
<path d="M8906 6225 c-19 -19 -20 -29 -6 -56 11 -20 54 -26 65 -9 4 6 -5 10
-19 10 -14 0 -26 5 -26 10 0 6 13 10 30 10 26 0 28 2 21 23 -10 27 -43 34 -65
12z m41 -11 c-3 -3 -12 -4 -19 -1 -8 3 -5 6 6 6 11 1 17 -2 13 -5z"/>
<path d="M9043 6224 c-4 -11 2 -23 18 -35 l24 -19 -22 0 c-13 0 -23 -4 -23
-10 0 -15 46 -12 58 3 13 15 5 29 -23 45 -19 11 -19 11 3 12 12 0 22 5 22 10
0 17 -50 11 -57 -6z"/>
<path d="M9132 6228 c-29 -29 -7 -78 35 -78 13 0 23 5 23 10 0 6 -9 10 -19 10
-11 0 -23 5 -26 10 -4 6 7 10 24 10 19 0 31 5 31 13 0 18 -21 37 -40 37 -9 0
-21 -5 -28 -12z m45 -14 c-3 -3 -12 -4 -19 -1 -8 3 -5 6 6 6 11 1 17 -2 13 -5z"/>
<path d="M9220 6194 c0 -32 4 -44 15 -44 10 0 15 11 15 35 0 24 5 35 15 35 10
0 15 -11 15 -35 0 -24 5 -35 15 -35 10 0 15 10 15 33 0 45 -10 55 -52 55 l-38
0 0 -44z"/>
<path d="M9400 6195 c0 -33 4 -45 15 -45 11 0 15 12 15 45 0 33 -4 45 -15 45
-11 0 -15 -12 -15 -45z"/>
<path d="M9450 6194 c0 -32 4 -44 15 -44 10 0 15 11 15 35 0 24 5 35 15 35 10
0 15 -11 15 -35 0 -24 5 -35 15 -35 10 0 15 10 15 33 0 45 -10 55 -52 55 l-38
0 0 -44z"/>
<path d="M9682 6228 c-7 -7 -12 -21 -12 -33 0 -12 5 -26 12 -33 7 -7 21 -12
33 -12 12 0 26 5 33 12 7 7 12 21 12 33 0 12 -5 26 -12 33 -7 7 -21 12 -33 12
-12 0 -26 -5 -33 -12z m56 -31 c4 -20 -25 -34 -40 -19 -15 15 -1 44 19 40 10
-2 19 -11 21 -21z"/>
<path d="M9952 6228 c-29 -29 -7 -78 35 -78 13 0 23 5 23 10 0 6 -9 10 -19 10
-11 0 -23 5 -26 10 -4 6 7 10 24 10 19 0 31 5 31 13 0 18 -21 37 -40 37 -9 0
-21 -5 -28 -12z m45 -14 c-3 -3 -12 -4 -19 -1 -8 3 -5 6 6 6 11 1 17 -2 13 -5z"/>
<path d="M10040 6194 c0 -32 4 -44 15 -44 10 0 15 11 15 35 0 24 5 35 15 35
10 0 15 -11 15 -35 0 -44 18 -46 22 -2 2 20 8 32 18 32 10 0 16 -12 18 -32 5
-49 24 -40 20 9 l-3 43 -67 1 -68 2 0 -44z"/>
<path d="M10372 6228 c-28 -28 -7 -78 33 -78 27 0 45 18 45 45 0 27 -18 45
-45 45 -12 0 -26 -5 -33 -12z m56 -31 c4 -20 -25 -34 -40 -19 -15 15 -1 44 19
40 10 -2 19 -11 21 -21z"/>
<path d="M10470 6186 c0 -34 -5 -56 -12 -59 -7 -2 -9 -8 -5 -13 4 -4 16 -3 25
2 24 15 30 124 7 124 -12 0 -15 -12 -15 -54z"/>
<path d="M10532 6228 c-29 -29 -7 -78 35 -78 13 0 23 5 23 10 0 6 -9 10 -19
10 -11 0 -23 5 -26 10 -4 6 7 10 24 10 19 0 31 5 31 13 0 18 -21 37 -40 37 -9
0 -21 -5 -28 -12z m45 -14 c-3 -3 -12 -4 -19 -1 -8 3 -5 6 6 6 11 1 17 -2 13
-5z"/>
<path d="M14772 6228 c-18 -18 -15 -26 16 -43 l27 -16 -27 4 c-19 3 -28 0 -28
-9 0 -15 27 -18 54 -8 23 9 20 29 -6 47 -19 13 -20 16 -5 16 9 1 17 6 17 11 0
14 -33 13 -48 -2z"/>
<path d="M14920 6231 c0 -6 12 -11 28 -11 27 -1 27 -1 -6 -15 -47 -21 -41 -50
11 -51 l38 -1 -3 41 c-3 38 -5 41 -35 44 -19 2 -33 -1 -33 -7z m45 -51 c-3 -5
-10 -10 -16 -10 -5 0 -9 5 -9 10 0 6 7 10 16 10 8 0 12 -4 9 -10z"/>
<path d="M15071 6227 c-28 -28 0 -86 35 -73 10 4 14 1 12 -6 -3 -7 -14 -14
-26 -16 -30 -5 -28 -22 2 -22 38 0 56 25 56 80 0 48 0 48 -34 48 -19 0 -39 -5
-45 -11z m49 -32 c0 -25 -23 -35 -35 -15 -10 16 2 40 20 40 9 0 15 -9 15 -25z"/>
<path d="M15186 6224 c-9 -8 -16 -22 -16 -29 0 -20 28 -45 50 -45 22 0 50 25
50 45 0 20 -28 45 -50 45 -10 0 -26 -7 -34 -16z m54 -29 c0 -18 -5 -25 -20
-25 -15 0 -20 7 -20 25 0 18 5 25 20 25 15 0 20 -7 20 -25z"/>
<path d="M15293 6233 c-20 -7 -15 -29 10 -46 l22 -16 -22 0 c-28 -1 -31 -21
-4 -21 52 0 66 27 29 53 -19 13 -20 16 -5 16 9 1 17 6 17 11 0 10 -26 12 -47
3z"/>
<path d="M15440 6230 c0 -5 10 -10 23 -10 20 -1 20 -2 -6 -16 -41 -22 -32 -49
16 -50 35 -1 37 0 37 30 0 18 -5 37 -12 44 -15 15 -58 16 -58 2z m45 -50 c-3
-5 -13 -10 -21 -10 -8 0 -12 5 -9 10 3 6 13 10 21 10 8 0 12 -4 9 -10z"/>
<path d="M15530 6194 c0 -32 4 -44 15 -44 10 0 15 11 15 35 0 24 5 35 15 35
10 0 15 -11 15 -35 0 -24 5 -35 15 -35 10 0 15 10 15 33 0 45 -10 55 -52 55
l-38 0 0 -44z"/>
<path d="M15762 6228 c-28 -28 -7 -78 33 -78 27 0 45 18 45 45 0 27 -18 45
-45 45 -12 0 -26 -5 -33 -12z m56 -31 c4 -20 -25 -34 -40 -19 -15 15 -1 44 19
40 10 -2 19 -11 21 -21z"/>
<path d="M16030 6230 c0 -5 10 -10 23 -11 20 -1 20 -2 -6 -12 -20 -8 -27 -17
-25 -32 2 -16 11 -20 41 -22 33 -2 37 0 37 23 0 39 -18 64 -45 64 -14 0 -25
-4 -25 -10z m40 -50 c0 -5 -7 -10 -16 -10 -8 0 -12 5 -9 10 3 6 10 10 16 10 5
0 9 -4 9 -10z"/>
<path d="M16182 6228 c-29 -29 -7 -78 35 -78 13 0 23 5 23 10 0 6 -9 10 -19
10 -11 0 -23 5 -26 10 -4 6 7 10 24 10 19 0 31 5 31 13 0 18 -21 37 -40 37 -9
0 -21 -5 -28 -12z m41 -15 c-7 -2 -19 -2 -25 0 -7 3 -2 5 12 5 14 0 19 -2 13
-5z"/>
<path d="M16269 6218 c-17 -32 4 -72 36 -65 21 3 25 0 25 -19 0 -13 5 -24 10
-24 6 0 10 28 10 63 l0 64 -35 1 c-26 1 -37 -4 -46 -20z m56 -24 c0 -10 -8
-20 -17 -22 -18 -3 -26 27 -11 42 12 11 28 0 28 -20z"/>
<path d="M16382 6198 c3 -42 4 -43 41 -44 l37 -1 0 43 c0 51 -17 60 -22 12 -2
-21 -8 -33 -18 -33 -10 0 -16 12 -18 33 -5 48 -24 39 -20 -10z"/>
<path d="M16490 6195 c0 -25 5 -45 10 -45 6 0 10 20 10 45 0 25 -4 45 -10 45
-5 0 -10 -20 -10 -45z"/>
<path d="M16540 6173 c0 -35 4 -63 10 -63 6 0 10 11 10 24 0 19 4 23 20 19 26
-7 50 13 50 42 0 30 -18 42 -57 42 l-33 0 0 -64z m60 22 c0 -25 -23 -35 -35
-15 -10 16 2 40 20 40 9 0 15 -9 15 -25z"/>
<path d="M16662 6228 c-29 -29 -7 -78 35 -78 13 0 23 5 23 10 0 6 -9 10 -19
10 -11 0 -23 5 -26 10 -4 6 7 10 24 10 19 0 31 5 31 13 0 18 -21 37 -40 37 -9
0 -21 -5 -28 -12z m41 -15 c-7 -2 -19 -2 -25 0 -7 3 -2 5 12 5 14 0 19 -2 13
-5z"/>
<path d="M4597 6174 c-8 -8 1 -24 14 -24 5 0 9 7 9 15 0 15 -12 20 -23 9z"/>
<path d="M10630 6165 c0 -8 7 -15 15 -15 8 0 15 7 15 15 0 8 -7 15 -15 15 -8
0 -15 -7 -15 -15z"/>
<path d="M16760 6165 c0 -9 5 -15 11 -13 6 2 11 8 11 13 0 5 -5 11 -11 13 -6
2 -11 -4 -11 -13z"/>
<path d="M3882 5243 c1 -50 2 -52 5 -15 2 23 7 42 11 42 4 0 18 -18 32 -40 14
-22 28 -40 32 -40 5 0 7 26 6 58 -1 49 -2 51 -5 15 -2 -24 -7 -43 -11 -43 -4
0 -18 18 -32 40 -14 22 -28 40 -32 40 -5 0 -7 -26 -6 -57z"/>
<path d="M4020 5290 c8 -5 20 -10 25 -10 6 0 3 5 -5 10 -8 5 -19 10 -25 10 -5
0 -3 -5 5 -10z"/>
<path d="M10072 5245 c1 -59 1 -59 7 -15 l6 45 29 -42 c16 -24 33 -43 37 -43
5 0 9 25 9 55 0 30 -4 55 -10 55 -5 0 -10 -19 -11 -42 l0 -43 -17 24 c-9 14
-25 34 -34 45 -17 20 -17 19 -16 -39z"/>
<path d="M10210 5290 c8 -5 20 -10 25 -10 6 0 3 5 -5 10 -8 5 -19 10 -25 10
-5 0 -3 -5 5 -10z"/>
<path d="M16252 5243 c1 -50 2 -52 5 -15 2 23 7 42 11 42 4 0 18 -18 32 -40
14 -22 28 -40 32 -40 5 0 7 26 6 58 l-1 57 -6 -45 -6 -45 -29 43 c-16 23 -33
42 -37 42 -5 0 -8 -26 -7 -57z"/>
<path d="M8784 5278 c-4 -6 5 -21 22 -35 28 -23 28 -24 10 -38 -11 -8 -15 -15
-9 -15 6 0 17 7 24 16 12 14 10 19 -15 39 -16 13 -25 28 -22 34 4 6 5 11 2 11
-3 0 -8 -5 -12 -12z"/>
<path d="M14974 5278 c-4 -6 4 -21 21 -34 18 -14 25 -26 20 -35 -7 -12 -6 -12
6 -1 12 11 10 17 -15 37 -16 12 -25 28 -22 34 4 6 5 11 2 11 -3 0 -8 -5 -12
-12z"/>
<path d="M2683 5230 c0 -25 2 -35 4 -22 2 12 2 32 0 45 -2 12 -4 2 -4 -23z"/>
<path d="M2760 5266 c0 -2 8 -10 18 -17 15 -13 16 -12 3 4 -13 16 -21 21 -21
13z"/>
<path d="M4006 5261 c-4 -5 3 -7 14 -4 22 6 28 -12 8 -20 -10 -4 -10 -6 0 -6
6 -1 12 -10 12 -21 0 -11 5 -20 10 -20 14 0 12 54 -2 68 -14 14 -35 16 -42 3z"/>
<path d="M4092 5258 c-28 -28 -1 -75 38 -63 14 4 20 15 20 35 0 36 -33 53 -58
28z m43 -28 c0 -16 -6 -26 -18 -28 -19 -4 -32 20 -23 44 9 25 41 13 41 -16z"/>
<path d="M8873 5230 c0 -25 2 -35 4 -22 2 12 2 32 0 45 -2 12 -4 2 -4 -23z"/>
<path d="M8913 5230 c0 -25 2 -35 4 -22 2 12 2 32 0 45 -2 12 -4 2 -4 -23z"/>
<path d="M8947 5263 c6 -4 13 -24 16 -43 4 -34 4 -33 3 4 -1 26 -6 41 -16 43
-10 3 -11 2 -3 -4z"/>
<path d="M8997 5263 c6 -4 13 -24 16 -43 4 -34 4 -33 3 4 -1 26 -6 41 -16 43
-10 3 -11 2 -3 -4z"/>
<path d="M10196 5261 c-3 -5 3 -7 14 -4 11 3 20 0 20 -6 0 -6 -6 -11 -12 -11
-9 0 -10 -2 -2 -8 7 -4 14 -16 17 -27 3 -11 5 -2 4 20 -2 28 -7 41 -19 43 -9
2 -19 -1 -22 -7z"/>
<path d="M10283 5263 c-22 -8 -16 -61 7 -68 39 -12 66 35 38 63 -13 13 -24 14
-45 5z m42 -33 c0 -16 -6 -26 -18 -28 -19 -4 -32 20 -23 44 9 25 41 13 41 -16z"/>
<path d="M15103 5230 c0 -25 2 -35 4 -22 2 12 2 32 0 45 -2 12 -4 2 -4 -23z"/>
<path d="M15137 5260 c6 -8 13 -28 16 -45 l4 -30 2 31 c0 20 -6 37 -16 45 -16
12 -16 12 -6 -1z"/>
<path d="M15187 5260 c6 -8 13 -28 16 -45 l4 -30 2 31 c0 20 -6 37 -16 45 -16
12 -16 12 -6 -1z"/>
<path d="M16404 5257 c18 -13 18 -14 -8 -21 -29 -7 -33 -36 -6 -43 12 -4 13
-3 1 5 -16 12 -6 32 16 32 9 0 13 -6 10 -15 -4 -8 -2 -17 4 -21 7 -4 9 8 7 32
-2 30 -8 40 -23 42 -20 4 -20 3 -1 -11z"/>
<path d="M16466 5255 c-9 -9 -16 -20 -16 -25 0 -15 32 -41 48 -38 24 5 39 35
26 56 -15 23 -38 26 -58 7z m44 -11 c11 -12 11 -18 -2 -31 -19 -18 -38 -10
-38 16 0 33 20 40 40 15z"/>
<path d="M2832 5215 c0 -16 2 -22 5 -12 2 9 2 23 0 30 -3 6 -5 -1 -5 -18z"/>
<path d="M3998 5225 c-11 -11 3 -35 21 -35 10 0 12 3 5 8 -6 4 -13 13 -15 20
-3 7 -7 10 -11 7z"/>
<path d="M10185 5220 c-9 -14 3 -30 23 -30 15 1 15 2 -1 11 -9 6 -15 14 -12
20 4 5 4 9 1 9 -3 0 -8 -4 -11 -10z"/>
<path d="M14977 5199 c7 -7 15 -10 18 -7 3 3 -2 9 -12 12 -14 6 -15 5 -6 -5z"/>
<path d="M3045 4745 c-16 -15 -25 -36 -25 -55 0 -19 9 -40 25 -55 15 -16 36
-25 55 -25 19 0 40 9 55 25 16 15 25 36 25 55 0 19 -9 40 -25 55 -15 16 -36
25 -55 25 -19 0 -40 -9 -55 -25z m100 -10 c14 -13 25 -33 25 -45 0 -11 -11
-32 -25 -45 -13 -14 -33 -25 -45 -25 -11 0 -32 11 -45 25 -14 13 -25 34 -25
45 0 12 11 32 25 45 31 32 59 32 90 0z"/>
<path d="M3090 4675 c0 -14 5 -25 10 -25 6 0 10 11 10 25 0 14 -4 25 -10 25
-5 0 -10 -11 -10 -25z"/>
<path d="M9235 4745 c-50 -49 -15 -135 55 -135 41 0 80 39 80 80 0 41 -39 80
-80 80 -19 0 -40 -9 -55 -25z m100 -10 c14 -13 25 -33 25 -45 0 -27 -43 -70
-70 -70 -27 0 -70 43 -70 70 0 27 43 70 70 70 12 0 32 -11 45 -25z"/>
<path d="M9280 4675 c0 -14 5 -25 10 -25 6 0 10 11 10 25 0 14 -4 25 -10 25
-5 0 -10 -11 -10 -25z"/>
<path d="M15415 4745 c-50 -49 -15 -135 55 -135 41 0 80 39 80 80 0 41 -39 80
-80 80 -19 0 -40 -9 -55 -25z m100 -10 c14 -13 25 -33 25 -45 0 -27 -43 -70
-70 -70 -27 0 -70 43 -70 70 0 27 43 70 70 70 11 0 32 -11 45 -25z"/>
<path d="M15460 4675 c0 -14 5 -25 10 -25 6 0 10 11 10 25 0 14 -4 25 -10 25
-5 0 -10 -11 -10 -25z"/>
<path d="M3321 4688 c22 -56 26 -64 33 -57 12 12 44 109 36 109 -5 0 -15 -18
-21 -40 -7 -22 -15 -40 -19 -40 -4 0 -12 18 -19 40 -6 22 -16 40 -21 40 -5 0
0 -24 11 -52z"/>
<path d="M9496 4718 c14 -45 35 -88 42 -88 11 0 46 99 38 107 -3 3 -10 -7 -16
-23 -25 -70 -26 -70 -39 -21 -8 26 -18 47 -23 47 -5 0 -6 -10 -2 -22z"/>
<path d="M15683 4726 c3 -8 11 -32 18 -55 7 -23 17 -41 24 -41 6 0 19 23 28
52 17 55 15 81 -3 32 -26 -72 -27 -72 -41 -21 -7 26 -17 47 -22 47 -5 0 -7 -6
-4 -14z"/>
<path d="M3502 4713 c-7 -7 -8 -13 -3 -13 5 0 11 -14 13 -32 2 -17 10 -33 18
-36 12 -4 13 -2 3 9 -15 15 -17 56 -4 61 5 2 4 8 -3 14 -8 8 -15 7 -24 -3z"/>
<path d="M9693 4719 c-5 -5 -7 -26 -4 -47 5 -27 12 -37 26 -39 11 -2 14 0 8 3
-15 6 -18 61 -4 66 5 2 3 8 -4 15 -8 7 -16 8 -22 2z"/>
<path d="M15878 4717 c-7 -22 7 -80 20 -85 11 -3 11 -1 0 17 -9 16 -10 25 -2
39 8 13 8 20 -1 29 -10 9 -14 9 -17 0z"/>
<path d="M3412 4698 c-25 -25 -6 -68 30 -68 26 0 45 44 28 65 -15 18 -41 20
-58 3z m46 -22 c6 -29 -15 -43 -35 -24 -14 14 -14 20 -3 33 16 19 34 15 38 -9z"/>
<path d="M3559 4686 c-9 -20 -9 -29 1 -41 28 -34 87 5 64 43 -18 28 -52 27
-65 -2z m51 -2 c11 -12 11 -18 -2 -31 -19 -18 -38 -10 -38 16 0 33 20 40 40
15z"/>
<path d="M3657 4703 c-13 -13 -7 -32 13 -38 11 -4 18 -11 14 -16 -3 -6 -12 -8
-20 -5 -8 3 -14 1 -14 -5 0 -6 10 -9 22 -7 30 4 35 34 8 43 -11 3 -18 11 -14
16 3 6 12 8 20 5 8 -3 14 -1 14 4 0 11 -33 14 -43 3z"/>
<path d="M9602 4698 c-17 -17 -15 -55 4 -62 27 -11 43 -7 54 14 22 40 -26 80
-58 48z m46 -22 c6 -29 -15 -43 -35 -24 -14 14 -14 20 -3 33 16 19 34 15 38
-9z"/>
<path d="M9752 4698 c-25 -25 -6 -68 30 -68 26 0 45 44 28 65 -15 18 -41 20
-58 3z m46 -22 c6 -29 -15 -43 -35 -24 -14 14 -14 20 -3 33 16 19 34 15 38 -9z"/>
<path d="M9841 4696 c-10 -12 -8 -17 8 -26 27 -14 27 -34 1 -27 -11 3 -18 1
-14 -4 8 -13 41 -11 50 3 4 6 -2 19 -14 29 -27 21 -27 26 -4 32 14 4 14 5 1 6
-9 0 -22 -5 -28 -13z"/>
<path d="M15786 4694 c-19 -18 -19 -20 -6 -45 20 -36 70 -17 70 27 0 34 -38
45 -64 18z m44 -10 c11 -12 11 -18 -2 -31 -19 -18 -38 -10 -38 16 0 33 20 40
40 15z"/>
<path d="M15942 4698 c-17 -17 -15 -55 4 -62 27 -11 43 -7 54 14 22 40 -26 80
-58 48z m46 -22 c6 -29 -15 -43 -35 -24 -14 14 -14 20 -3 33 16 19 34 15 38
-9z"/>
<path d="M16030 4699 c-13 -8 -12 -12 8 -26 27 -19 29 -37 2 -30 -11 3 -20 1
-20 -4 0 -14 36 -10 50 5 9 12 7 17 -9 28 -26 16 -27 25 -3 31 12 3 13 5 2 6
-8 0 -22 -4 -30 -10z"/>
<path d="M10029 4268 l24 -28 -24 -27 -24 -28 28 24 27 24 28 -24 27 -24 -24
28 -24 27 24 28 24 27 -27 -24 -28 -24 -27 24 -28 24 24 -27z"/>
<path d="M8971 4240 c0 -8 6 -28 14 -45 17 -39 18 -21 0 25 -7 19 -14 28 -14
20z"/>
<path d="M9030 4205 c-7 -25 -17 -45 -21 -45 -5 0 -9 -4 -9 -10 0 -27 19 -4
37 45 12 30 17 55 13 55 -4 0 -13 -20 -20 -45z"/>
<path d="M9158 4227 c-7 -22 7 -80 20 -83 7 -1 8 0 2 3 -12 6 -13 60 -1 65 5
2 3 8 -4 15 -10 9 -14 9 -17 0z"/>
<path d="M9072 4208 c-16 -16 -15 -43 3 -58 18 -15 47 -10 52 10 4 12 3 12 -5
2 -15 -23 -47 -10 -47 18 0 28 32 41 47 18 8 -10 9 -10 5 2 -5 19 -39 24 -55
8z"/>
<path d="M9222 4208 c-29 -29 -1 -75 38 -63 17 5 20 13 18 38 -3 35 -33 48
-56 25z m43 -28 c0 -16 -6 -26 -18 -28 -19 -4 -32 20 -23 44 9 25 41 13 41
-16z"/>
<path d="M9304 4208 c-4 -6 2 -19 14 -29 27 -21 27 -26 2 -32 -17 -4 -17 -4 2
-3 30 1 36 32 9 41 -28 8 -27 23 2 28 22 4 22 4 0 6 -12 0 -25 -4 -29 -11z"/>
<path d="M9446 3792 l-19 -27 24 22 c12 12 21 24 18 27 -2 2 -13 -8 -23 -22z"/>
<path d="M9388 3783 c20 -4 22 -10 22 -63 0 -57 -1 -59 -27 -62 -16 -2 14 -4
65 -5 91 -2 93 -2 102 23 13 33 13 74 0 74 -5 0 -7 -7 -4 -15 4 -9 0 -15 -7
-15 -11 0 -11 -3 1 -11 11 -7 12 -12 3 -15 -7 -3 -9 -12 -6 -20 4 -11 -4 -14
-33 -14 -76 0 -83 6 -86 69 -3 52 -5 56 -28 57 -22 1 -22 0 -2 -3z"/>
<path d="M9340 3440 l0 -60 50 0 c47 0 52 -2 71 -34 24 -41 49 -38 49 4 0 25
4 29 33 32 30 3 32 5 29 37 -7 67 -17 81 -62 81 -23 0 -51 -5 -62 -11 -14 -8
-23 -8 -31 0 -6 6 -26 11 -44 11 l-33 0 0 -60z m68 -2 c3 -47 3 -48 -27 -48
-30 0 -31 1 -31 51 0 49 1 50 28 47 25 -3 27 -7 30 -50z m138 37 c-3 -8 0 -15
6 -15 7 0 6 -5 -2 -15 -10 -12 -10 -15 0 -15 8 0 10 -3 7 -7 -4 -3 -2 -12 4
-20 9 -10 2 -13 -37 -13 -37 0 -45 -3 -36 -12 13 -13 16 -48 5 -48 -17 1 -73
80 -73 104 0 34 35 56 88 56 35 0 43 -3 38 -15z"/>
<path d="M9680 3431 c-14 -27 -13 -84 2 -99 32 -32 68 -1 68 60 0 55 -47 81
-70 39z m45 -47 c0 -28 -4 -39 -15 -39 -16 0 -26 45 -16 72 11 28 31 7 31 -33z"/>
</g>
</svg>
